# xmcd
#
# Track frame offsets:
#	150
#	15339
#	32479
#	46306
#	61439
#	80903
#	95530
#	111126
#	127632
#	145122
#	159612
#	176651
#	195476
#	211332
#	240692
# Disc length: 4801 seconds
# Revision: 1
# Processed by: cddbd v1.5.1PL0 Copyright (c) Steve Scherf et al.
#
# Submitted via: libkcddb 0.10
#
DISCID=c112bf0f
DTITLE=BACKSTREET BOYS - BLACK and BLUE
DYEAR=1900
DGENRE=
TTITLE0=The Call
TTITLE1=Shape Of My Heart
TTITLE2=Get Another Boyfriend
TTITLE3=Shining Star
TTITLE4=I Promise You
TTITLE5=The Answer To Our Life
TTITLE6=Everyone
TTITLE7=More Than That
TTITLE8=Time
TTITLE9=Not For Me
TTITLE10=Yes I Will
TTITLE11=It's True
TTITLE12=What Makes You Different
TTITLE13=How Did I Fall In Love With You
TTITLE14=
EXTD=
EXTT0=
EXTT1=
EXTT2=
EXTT3=
EXTT4=
EXTT5=
EXTT6=
EXTT7=
EXTT8=
EXTT9=
EXTT10=
EXTT11=
EXTT12=
EXTT13=
EXTT14=
PLAYORDER=
